<?xml version="1.0" encoding="utf-8"?>
<!-- Generator: Adobe Illustrator 19.2.1, SVG Export Plug-In . SVG Version: 6.00 Build 0)  -->
<svg version="1.1" id="图层_1" xmlns="http://www.w3.org/2000/svg" xmlns:xlink="http://www.w3.org/1999/xlink" x="0px" y="0px"
	 viewBox="0 0 100 100" style="enable-background:new 0 0 100 100;" xml:space="preserve">
<style type="text/css">
	.st0{fill:#BF967E;}
</style>
<g>
	<path class="st0" d="M81.9,59.2c-5.7,7.4-9.9,12.8-14.9,17.5l-0.3-19c0.1-4.2,0.6-8.4,1.3-12.4c-3.7,4.6-7.9,16.9-20.5,32.2
		c-0.7-4.1-1.3-8.9-1.7-14.2c1,0.4,2.1,0.6,3.3,0.6c0.3,0,0.7,0,1,0l0,0c0.3,2.1,0.8,5.5,0.8,5.5s2.8-4.2,6.2-10.1
		c2.7-4.7,6-10.7,9.2-15.5c2.9-4.3,6.7-7,6.7-7s-1.1,5-1.6,11.4c-0.5,6.4-0.5,14.3-0.6,21.5c2.9-3.6,7.4-8.6,12.5-16.2
		c4.1-6.1,6.5-10.7,6.5-14.7c0-2.6-1.1-4-1.3-5.1C82.3,18.6,67.3,8,49.9,8c-23.2,0-42,18.8-42,42c0,5.3,1,10.3,2.7,14.9
		c0.3,0.1,0.7,0.1,1,0.1c1.7,0,3.3-1.1,5-2.8C25.1,53.8,31.8,39,43,26.4c-5.6,0.5-9.7,0.6-12.4,2.7c-1.5,1.1-2.4,2.9-2.4,4.3
		c0,1.2,0.9,2.2,0.9,3.3c0,0.8-0.8,1.8-1.8,1.8c-1.4,0-2.3-1.2-2.3-3.2c0-5.6,4.9-9.8,13.1-10.5c4.2-0.3,7.4-0.2,10-2.4
		c-0.3,1.2-0.6,2.4-0.8,3.6c-0.2,1-0.5,3.2-0.9,5.9c-0.2,1.8-0.5,3.5-0.7,5L45.3,37c-1.5,0.4-2.9,0.9-4.1,1.4
		c0.6-4.2,1.1-7.1,1.5-8.8c-5.8,7.7-9.6,13.4-12.5,18c2.3,0.1,9,0.1,9.8,0c0.2-1.4,0.3-2.7,0.5-3.9l0.8-0.6c0.4-0.2,0.7-0.4,1-0.6
		c0.8-0.4,1.7-0.8,2.8-1.1c-0.3,2.5-0.6,4.2-0.7,5c-0.1,1.1-0.2,2.1-0.3,2.9c-0.2,2.3-0.1,4.4,0.2,6.2c0,0.1,0,0.3,0.1,0.4
		c0.6,2.9,1.8,4.8,3.8,4.6c1.7-0.1,2.2-1.6,2.9-2.3c0.6-0.6,2-1.1,2.9-0.5c1.1,0.8,0.7,2-0.2,3c-0.8,0.9-2.4,1.7-3.4,1.8
		c-3.6,0.3-6.5-0.8-8.7-5.3c-0.9-1.9-1.5-4.5-1.5-6.9c0-0.3,0-0.6,0-0.8c-1.7,0-8.3-0.1-11.3,0c-6.7,10.2-11.8,17-16.7,18.6
		C18.9,82.3,33.3,92,49.9,92c23.2,0,42-18.8,42-42c0-2-0.1-3.9-0.4-5.8C89.6,48.4,86.4,53.4,81.9,59.2z M51.7,43.9
		c-1.1,4.6-1.4,8.7-1.7,13.1c0,0.4,0,0.7,0,1.1c-0.3,0.4-0.6,0.8-0.8,1c-0.3,0.3-0.6,0.5-1,0.5h-0.1c-0.3,0-0.8-0.1-1.4-0.8
		c-0.4-0.4-0.7-1.2-1-2c0-3,0.6-7.2,1.3-11.2c0.6-3.3,1.4-5.7,1.4-5.7s-3.4,0.4-6.5,2c-2.3,1.2-4,3.2-5.2,5.3h-1h-1.4
		c1-2.1,2.4-4.3,4.3-5.7c4.2-3.1,9.7-4,12.4-4.7c1.9-0.5,3.6-1.7,3.6-1.7S52.8,39.5,51.7,43.9z M35.1,56.6c-1.5,0-2.4-1.9-2.4-3.9
		c0-0.6,0.1-1.3,0.2-2l2.5,0c0.2,1.8,1.4,2.9,1.4,3.9C36.8,55.7,36.1,56.6,35.1,56.6z"/>
</g>
</svg>
