<?xml version="1.0" encoding="utf-8"?>
<!-- Generator: Adobe Illustrator 19.2.1, SVG Export Plug-In . SVG Version: 6.00 Build 0)  -->
<svg version="1.1" id="图层_1" xmlns="http://www.w3.org/2000/svg" xmlns:xlink="http://www.w3.org/1999/xlink" x="0px" y="0px"
	 viewBox="0 0 88 56" style="enable-background:new 0 0 88 56;" xml:space="preserve">
<style type="text/css">
	.st0{fill:#BF967E;}
</style>
<g>
	<g>
		<g>
			<g>
				<path class="st0" d="M44.5,40.7c1.1-0.1,2.7-0.9,3.4-1.8c0.9-1,1.3-2.2,0.2-3c-0.9-0.7-2.3-0.1-2.9,0.5
					c-0.7,0.7-1.1,2.2-2.9,2.3c-2,0.1-3.3-1.7-3.8-4.6c0-0.1,0-0.3-0.1-0.4c-0.3-1.7-0.3-3.9-0.2-6.2c0.1-0.8,0.2-1.8,0.3-2.9
					c0.1-0.8,0.3-2.5,0.7-5c-1,0.3-2,0.6-2.8,1.1c-0.3,0.2-0.6,0.4-1,0.6l-0.8,0.6c-0.2,1.2-0.3,2.5-0.5,3.9c-0.8,0.1-7.6,0.1-9.9,0
					c3-4.6,6.8-10.4,12.6-18.1c-0.4,1.6-0.9,4.5-1.5,8.8c1.2-0.5,2.6-1,4.1-1.4l0.5-0.1c0.2-1.5,0.4-3.2,0.7-5
					c0.4-2.7,0.8-4.9,0.9-5.9c0.2-1.2,0.5-2.4,0.8-3.6c-2.6,2.2-5.9,2.1-10.1,2.4C24,3.4,19.1,7.7,19.1,13.2c0,2,0.8,3.2,2.3,3.2
					c1.1,0,1.8-1,1.8-1.8c0-1.1-0.9-2.1-0.9-3.3c0-1.5,1-3.2,2.4-4.3c2.7-2.1,6.8-2.2,12.4-2.7C25.9,16.9,19.2,31.8,10.8,40.2
					C9,41.9,7.5,43,5.7,43c-1.2,0-2.7-0.6-3.6-0.6c-1.2,0-1.8,0.8-1.8,1.8c0,1.5,1.3,2.4,3.6,2.4c5.7,0,11.2-7.2,18.9-19
					c3-0.1,9.7,0,11.3,0c0,0.3,0,0.5,0,0.8c0.1,2.4,0.6,5.1,1.5,7C38,40,40.9,41,44.5,40.7z"/>
				<path class="st0" d="M27,28.7c-0.1,0.7-0.2,1.4-0.2,2c0,2,0.9,3.9,2.4,3.9c1.1,0,1.7-0.9,1.7-1.9c0-1.1-1.2-2.1-1.4-3.9L27,28.7
					z"/>
				<path class="st0" d="M28.3,25.2h1.4h1c1.1-2.1,2.9-4.1,5.2-5.3c3-1.6,6.5-2,6.5-2s-0.8,2.4-1.4,5.7c-0.7,4-1.3,8.2-1.3,11.2
					c0.3,0.7,0.6,1.5,1,2c0.6,0.7,1.1,0.8,1.4,0.8l0.1,0c0.4,0,0.7-0.2,1-0.5c0.2-0.2,0.5-0.6,0.8-1c0-0.4,0-0.7,0-1.1
					c0.3-4.4,0.7-8.5,1.8-13.1c1.1-4.4,2.7-8.7,2.7-8.7s-1.7,1.2-3.6,1.7c-2.7,0.7-8.3,1.6-12.5,4.7C30.8,20.9,29.3,23.2,28.3,25.2z
					"/>
				<path class="st0" d="M85,9.3c-1.2,0-2.2,0.8-2.2,2c0,1.3,1.3,2.7,1.3,5.5c0,3.9-2.5,8.6-6.6,14.7C72.5,39,68,44.1,65.1,47.7
					c0.1-7.2,0.1-15.1,0.6-21.5c0.5-6.5,1.6-11.4,1.6-11.4s-3.8,2.8-6.7,7.1c-3.3,4.8-6.5,10.8-9.2,15.5c-3.4,5.9-6.2,10.1-6.2,10.1
					s-0.5-3.5-0.8-5.6h0c-0.4,0-0.7,0-1,0c0,0,0,0,0,0c-1.2,0-2.3-0.2-3.3-0.6c0.4,5.3,1,10.2,1.7,14.3
					c12.7-15.4,16.9-27.7,20.6-32.3c-0.7,4.1-1.1,8.3-1.3,12.5l0.3,19c5-4.8,9.2-10.1,14.9-17.6c7.6-10,11.6-17.5,11.6-22.7
					C87.8,11.2,86.8,9.3,85,9.3z"/>
			</g>
		</g>
	</g>
</g>
</svg>
