<?xml version="1.0" encoding="utf-8"?>
<!-- Generator: Adobe Illustrator 19.2.1, SVG Export Plug-In . SVG Version: 6.00 Build 0)  -->
<svg version="1.1" id="图层_1" xmlns="http://www.w3.org/2000/svg" xmlns:xlink="http://www.w3.org/1999/xlink" x="0px" y="0px"
	 viewBox="0 0 158 34" style="enable-background:new 0 0 158 34;" xml:space="preserve">
<style type="text/css">
	.st0{fill:#BF967E;}
	.st1{fill:#4C4948;}
</style>
<g>
	<g>
		<g>
			<g>
				<path class="st0" d="M27.1,24.6c0.6-0.1,1.6-0.6,2.1-1.1c0.5-0.6,0.8-1.3,0.1-1.8c-0.5-0.4-1.4-0.1-1.7,0.3
					c-0.4,0.4-0.7,1.3-1.7,1.4c-1.2,0.1-1.9-1-2.3-2.8c0-0.1,0-0.2,0-0.3c-0.2-1-0.2-2.3-0.1-3.7c0-0.5,0.1-1.1,0.2-1.8
					c0.1-0.5,0.2-1.5,0.4-3c-0.6,0.2-1.2,0.4-1.7,0.6c-0.2,0.1-0.4,0.2-0.6,0.4l-0.5,0.3c-0.1,0.7-0.2,1.5-0.3,2.3
					c-0.5,0-4.5,0-5.9,0c1.8-2.7,4.1-6.2,7.5-10.8c-0.2,1-0.6,2.7-0.9,5.3c0.7-0.3,1.5-0.6,2.4-0.9l0.3-0.1c0.1-0.9,0.3-1.9,0.4-3
					c0.2-1.6,0.5-2.9,0.6-3.5c0.1-0.7,0.3-1.4,0.5-2.1c-1.6,1.3-3.5,1.3-6,1.4c-4.9,0.4-7.9,2.9-7.9,6.3c0,1.2,0.5,1.9,1.4,1.9
					c0.6,0,1.1-0.6,1.1-1.1c0-0.6-0.5-1.3-0.5-2c0-0.9,0.6-1.9,1.4-2.6c1.6-1.3,4.1-1.3,7.4-1.6C16,10.4,12,19.3,6.9,24.3
					c-1,1-2,1.7-3,1.7c-0.7,0-1.6-0.3-2.1-0.3c-0.7,0-1.1,0.5-1.1,1.1c0,0.9,0.8,1.4,2.2,1.4c3.4,0,6.7-4.3,11.3-11.4
					c1.8,0,5.8,0,6.8,0c0,0.2,0,0.3,0,0.5c0.1,1.5,0.4,3,0.9,4.2C23.2,24.2,24.9,24.8,27.1,24.6z"/>
				<path class="st0" d="M16.6,17.5c-0.1,0.4-0.1,0.8-0.1,1.2c0,1.2,0.5,2.3,1.4,2.3c0.6,0,1-0.5,1-1.1c0-0.6-0.7-1.3-0.9-2.4
					L16.6,17.5z"/>
				<path class="st0" d="M17.4,15.4h0.9h0.6c0.7-1.2,1.8-2.5,3.1-3.2c1.8-1,3.9-1.2,3.9-1.2s-0.5,1.4-0.8,3.4
					c-0.4,2.4-0.8,4.9-0.8,6.7c0.2,0.4,0.4,0.9,0.6,1.2c0.3,0.4,0.6,0.5,0.8,0.5l0.1,0c0.3,0,0.4-0.1,0.6-0.3
					c0.1-0.1,0.3-0.4,0.5-0.6c0-0.2,0-0.4,0-0.7c0.2-2.6,0.4-5.1,1-7.8c0.6-2.7,1.6-5.2,1.6-5.2s-1,0.7-2.1,1
					c-1.6,0.4-4.9,1-7.5,2.8C18.9,12.8,18,14.1,17.4,15.4z"/>
				<path class="st0" d="M51.4,5.8c-0.7,0-1.3,0.5-1.3,1.2c0,0.8,0.8,1.6,0.8,3.3c0,2.4-1.5,5.1-3.9,8.8c-3,4.5-5.8,7.5-7.5,9.7
					c0-4.3,0-9,0.4-12.9c0.3-3.9,1-6.9,1-6.9s-2.3,1.7-4,4.2c-2,2.9-3.9,6.5-5.5,9.3c-2.1,3.5-3.7,6-3.7,6s-0.3-2.1-0.5-3.3h0
					c-0.2,0-0.4,0-0.6,0c0,0,0,0,0,0c-0.7,0-1.4-0.1-2-0.3c0.2,3.2,0.6,6.1,1,8.5c7.6-9.2,10.1-16.6,12.3-19.3
					c-0.4,2.4-0.7,4.9-0.8,7.5l0.2,11.4c3-2.9,5.5-6.1,8.9-10.5c4.5-6,7-10.5,7-13.6C53,7,52.4,5.8,51.4,5.8z"/>
			</g>
		</g>
	</g>
</g>
<g>
	<path class="st1" d="M61.9,29.3c0.3,0,0.5,0,0.6,0c0.5,0,0.7-0.1,1-0.2c0.4-0.2,0.5-0.6,0.5-1.3v-0.6l0-11.3c0-0.7-0.2-1-0.5-1.3
		c-0.1-0.1-0.3-0.1-0.4-0.2c-0.2,0-0.3,0-1.1-0.1V14h6.4c1.7,0,2.9,0.2,3.9,0.7c1.4,0.6,2.2,1.9,2.2,3.3c0,1-0.5,2-1.5,2.7
		c-0.6,0.4-1,0.6-2,0.8c1.1,0.3,1.6,0.4,2.2,0.8c1.2,0.8,1.9,1.9,1.9,3.2c0,1.4-1,2.8-2.5,3.5c-1.2,0.5-1.9,0.6-4.8,0.6h-5.9V29.3z
		 M66.4,21c0.7,0.1,1.3,0.2,1.7,0.2c2.3,0,3.9-1.3,3.9-3.2c0-1.9-1.6-3.2-3.9-3.2c-0.4,0-1,0-1.7,0.1L66.4,21z M66.4,28.6
		c0.8,0.1,1.5,0.2,2,0.2c2.4,0,4.1-1.4,4.1-3.5c0-2.1-1.7-3.5-4.3-3.5c-0.3,0-1,0-1.7,0.1L66.4,28.6z"/>
	<path class="st1" d="M78.8,14h7.3c3.1,0,5.2,1.6,5.2,3.9c0,0.8-0.3,1.7-1,2.4c-0.8,0.9-1.5,1.3-3.5,1.7l5.3,5.9
		c0.5,0.6,1,1,1.5,1.2c0.3,0.2,0.5,0.2,1,0.2h0.3v0.3h-4.2l-6.3-7.2l-1.2,0l0,5.4c0,0.7,0.2,1,0.5,1.3c0.2,0.1,0.3,0.1,0.4,0.2
		c0.2,0,0.3,0,1.2,0.1v0.3h-6.6v-0.3c0.3,0,0.5,0,0.6,0c0.5,0,0.7-0.1,1-0.2c0.4-0.2,0.5-0.6,0.5-1.3V15.8c0-0.7-0.2-1-0.6-1.3
		c-0.1-0.1-0.3-0.1-0.4-0.2c-0.3,0-0.4,0-1.2-0.1V14z M83.3,21.4c0.6,0,1.1,0.1,1.5,0.1c2.3,0,4-1.4,4-3.5c0-1.9-1.5-3.2-3.7-3.2
		c-0.4,0-1,0-1.7,0.2L83.3,21.4z"/>
	<path class="st1" d="M96.2,29.3c0.3,0,0.5,0,0.6,0c0.5,0,0.7-0.1,0.9-0.2c0.4-0.2,0.5-0.5,0.5-1.3v-0.3V15.8c0-0.7-0.2-1-0.5-1.3
		c-0.1-0.1-0.3-0.1-0.4-0.2c-0.2,0-0.4-0.1-1.1-0.1V14h6.6v0.3c-0.3,0-0.5,0-0.6,0c-0.5,0-0.7,0.1-1,0.2c-0.4,0.2-0.5,0.6-0.5,1.3
		l0,11.9c0,0.7,0.2,1,0.5,1.3c0.2,0.1,0.3,0.1,0.4,0.2c0.2,0,0.3,0,1.1,0.1v0.3h-6.5V29.3z"/>
	<path class="st1" d="M106.2,29.3c0.3,0,0.5,0,0.6,0c0.5,0,0.7-0.1,0.9-0.2c0.4-0.2,0.5-0.6,0.5-1.3l0-0.3V15.8c0-0.7-0.2-1-0.5-1.3
		c-0.1-0.1-0.3-0.1-0.4-0.2c-0.2,0-0.3-0.1-1.1-0.1V14h7.8c5.1,0,8.6,3.1,8.6,7.8c0,4.7-3.7,7.9-9.2,7.9h-7.2V29.3z M110.7,28.5
		c1.1,0.1,2,0.2,2.7,0.2c4,0,6.7-2.8,6.7-6.9c0-4.3-2.8-7.1-7.1-7.1c-0.6,0-1.3,0-2.3,0.1V28.5z"/>
	<path class="st1" d="M124.3,29.3h0.6h0.1c0.4,0,0.5,0,0.8-0.2c0.1-0.1,0.3-0.1,0.3-0.2c0.2-0.1,0.2-0.2,0.3-0.3
		c0-0.1,0.1-0.3,0.3-0.7l6-13.9h0.9l5.9,13.9c0.4,0.9,0.9,1.4,1.4,1.4c0,0,0.2,0,0.3,0c0.1,0,0.3,0,0.5,0v0.3h-6.4v-0.3h0.7h0.1
		c0.6,0,0.9-0.2,0.9-0.6c0-0.2-0.1-0.5-0.2-0.8l-1.4-3.5l-6.3,0l-1.5,3.4c-0.2,0.3-0.2,0.6-0.2,0.8c0,0.4,0.3,0.6,0.9,0.6h0.2h0.7
		v0.3h-5V29.3z M129.5,23.7h5.6l-2.8-6.6L129.5,23.7z"/>
	<path class="st1" d="M143.8,29.3c0.3,0,0.5,0,0.6,0c0.5,0,0.7-0.1,0.9-0.2c0.4-0.2,0.6-0.6,0.6-1.3V15.8c0-0.7-0.1-1-0.5-1.3
		c-0.1-0.1-0.3-0.1-0.4-0.2c-0.2,0-0.3,0-1.2-0.1V14h6.6v0.3c-1,0-1.2,0.1-1.6,0.3c-0.4,0.2-0.5,0.6-0.5,1.3l0,11.8
		c0,0.6,0,0.8,0.3,0.9c0.3,0.2,0.4,0.2,2.8,0.2c2.5,0,3.2-0.1,3.9-0.5c0.6-0.3,1-1,1.4-2.5l0.4,0l-1,3.8h-12.2V29.3z"/>
</g>
</svg>
